<mxfile host="Electron" modified="2023-11-20T10:11:33.251Z" agent="Mozilla/5.0 (X11; Linux x86_64) AppleWebKit/537.36 (KHTML, like Gecko) draw.io/21.6.8 Chrome/114.0.5735.289 Electron/25.5.0 Safari/537.36" etag="IOsKG8rMdIaEg7d-ncwr" version="21.6.8" type="device">
  <diagram name="Page-1" id="xJ4cdNUSsaX9OzZSHkuw">
    <mxGraphModel dx="1364" dy="963" grid="1" gridSize="10" guides="1" tooltips="1" connect="1" arrows="1" fold="1" page="1" pageScale="1" pageWidth="850" pageHeight="1100" math="0" shadow="0">
      <root>
        <mxCell id="0" />
        <mxCell id="1" parent="0" />
        <mxCell id="KPMjPUEi0mdEPTyGmCip-3" value="" style="edgeStyle=orthogonalEdgeStyle;rounded=0;orthogonalLoop=1;jettySize=auto;html=1;" edge="1" parent="1" source="KPMjPUEi0mdEPTyGmCip-1" target="KPMjPUEi0mdEPTyGmCip-2">
          <mxGeometry relative="1" as="geometry" />
        </mxCell>
        <mxCell id="KPMjPUEi0mdEPTyGmCip-1" value="&quot;test : %c test : %%%i&quot;" style="rounded=0;whiteSpace=wrap;html=1;fillColor=#60a917;fontColor=#ffffff;strokeColor=#2D7600;fontSize=16;" vertex="1" parent="1">
          <mxGeometry x="303" y="210" width="245" height="60" as="geometry" />
        </mxCell>
        <mxCell id="KPMjPUEi0mdEPTyGmCip-5" value="" style="edgeStyle=orthogonalEdgeStyle;rounded=0;orthogonalLoop=1;jettySize=auto;html=1;" edge="1" parent="1" source="KPMjPUEi0mdEPTyGmCip-2" target="KPMjPUEi0mdEPTyGmCip-4">
          <mxGeometry relative="1" as="geometry" />
        </mxCell>
        <mxCell id="KPMjPUEi0mdEPTyGmCip-2" value="print untill &#39;%&#39;" style="whiteSpace=wrap;html=1;fontSize=16;fillColor=#60a917;strokeColor=#2D7600;fontColor=#ffffff;rounded=0;" vertex="1" parent="1">
          <mxGeometry x="365.5" y="320" width="120" height="60" as="geometry" />
        </mxCell>
        <mxCell id="KPMjPUEi0mdEPTyGmCip-7" value="" style="edgeStyle=orthogonalEdgeStyle;rounded=0;orthogonalLoop=1;jettySize=auto;html=1;" edge="1" parent="1" source="KPMjPUEi0mdEPTyGmCip-4" target="KPMjPUEi0mdEPTyGmCip-6">
          <mxGeometry relative="1" as="geometry" />
        </mxCell>
        <mxCell id="KPMjPUEi0mdEPTyGmCip-4" value="print first argument" style="whiteSpace=wrap;html=1;fontSize=16;fillColor=#60a917;strokeColor=#2D7600;fontColor=#ffffff;rounded=0;" vertex="1" parent="1">
          <mxGeometry x="365.5" y="413" width="120" height="60" as="geometry" />
        </mxCell>
        <mxCell id="KPMjPUEi0mdEPTyGmCip-9" value="" style="edgeStyle=orthogonalEdgeStyle;rounded=0;orthogonalLoop=1;jettySize=auto;html=1;" edge="1" parent="1" source="KPMjPUEi0mdEPTyGmCip-6" target="KPMjPUEi0mdEPTyGmCip-8">
          <mxGeometry relative="1" as="geometry" />
        </mxCell>
        <mxCell id="KPMjPUEi0mdEPTyGmCip-6" value="print until next &#39;%&#39;" style="whiteSpace=wrap;html=1;fontSize=16;fillColor=#60a917;strokeColor=#2D7600;fontColor=#ffffff;rounded=0;" vertex="1" parent="1">
          <mxGeometry x="353" y="514" width="144.5" height="60" as="geometry" />
        </mxCell>
        <mxCell id="KPMjPUEi0mdEPTyGmCip-11" value="" style="edgeStyle=orthogonalEdgeStyle;rounded=0;orthogonalLoop=1;jettySize=auto;html=1;" edge="1" parent="1" source="KPMjPUEi0mdEPTyGmCip-8" target="KPMjPUEi0mdEPTyGmCip-10">
          <mxGeometry relative="1" as="geometry" />
        </mxCell>
        <mxCell id="KPMjPUEi0mdEPTyGmCip-8" value="print &#39;%&#39;" style="whiteSpace=wrap;html=1;fontSize=16;fillColor=#60a917;strokeColor=#2D7600;fontColor=#ffffff;rounded=0;" vertex="1" parent="1">
          <mxGeometry x="365.25" y="610" width="120" height="60" as="geometry" />
        </mxCell>
        <mxCell id="KPMjPUEi0mdEPTyGmCip-13" value="" style="edgeStyle=orthogonalEdgeStyle;rounded=0;orthogonalLoop=1;jettySize=auto;html=1;" edge="1" parent="1" source="KPMjPUEi0mdEPTyGmCip-10" target="KPMjPUEi0mdEPTyGmCip-12">
          <mxGeometry relative="1" as="geometry" />
        </mxCell>
        <mxCell id="KPMjPUEi0mdEPTyGmCip-10" value="print to next %" style="whiteSpace=wrap;html=1;fontSize=16;fillColor=#60a917;strokeColor=#2D7600;fontColor=#ffffff;rounded=0;" vertex="1" parent="1">
          <mxGeometry x="365.25" y="711" width="120" height="60" as="geometry" />
        </mxCell>
        <mxCell id="KPMjPUEi0mdEPTyGmCip-12" value="print next argument" style="whiteSpace=wrap;html=1;fontSize=16;fillColor=#60a917;strokeColor=#2D7600;fontColor=#ffffff;rounded=0;" vertex="1" parent="1">
          <mxGeometry x="365.25" y="814" width="120" height="60" as="geometry" />
        </mxCell>
      </root>
    </mxGraphModel>
  </diagram>
</mxfile>
